<?xml version="1.0" encoding="UTF-8"?>
<!--
  RÄTT-modellen — Standalone SVG
  Dra in i Keynote, Canva, eller öppna i webbläsare.
  Vektor — skalbar utan pixlighet.
  © Johan Lindström · JL Skolutveckling AB · jlsu.se
-->
<svg viewBox="0 0 700 700" xmlns="http://www.w3.org/2000/svg">
  <rect width="700" height="700" fill="#f7f4ec" rx="0"/>
  <defs>
    <marker id="arr-sv" viewBox="0 0 10 10" refX="9" refY="5" markerWidth="7" markerHeight="7" orient="auto">
      <path d="M 0 1 L 10 5 L 0 9 z" fill="#2d5a3f" opacity="0.6"/>
    </marker>
  </defs>
  <text x="350" y="48" text-anchor="middle" font-family="Fraunces, Georgia, serif" font-size="36" font-weight="400" fill="#1e1e1c" letter-spacing="-0.5">RÄTT-modellen</text>
  <text x="350" y="78" text-anchor="middle" font-family="'Work Sans', -apple-system, sans-serif" font-size="18" font-weight="400" fill="#5a5a57" letter-spacing="0.3">Rätt verktyg vid rätt tillfälle</text>
  <g transform="translate(50, 85)">
    <circle cx="300" cy="300" r="220" fill="none" stroke="#e8e2d5" stroke-width="1" stroke-dasharray="4 6"/>
    <path d="M 375.24 93.27 A 220 220 0 0 1 506.74 224.76" fill="none" stroke="#2d5a3f" stroke-width="2" opacity="0.5" marker-end="url(#arr-sv)"/>
    <path d="M 506.74 375.24 A 220 220 0 0 1 375.24 506.73" fill="none" stroke="#2d5a3f" stroke-width="2" opacity="0.5" marker-end="url(#arr-sv)"/>
    <path d="M 224.76 506.73 A 220 220 0 0 1 93.27 375.24" fill="none" stroke="#2d5a3f" stroke-width="2" opacity="0.5" marker-end="url(#arr-sv)"/>
    <path d="M 93.27 224.76 A 220 220 0 0 1 224.76 93.27" fill="none" stroke="#2d5a3f" stroke-width="2" opacity="0.5" marker-end="url(#arr-sv)"/>
    <g><circle cx="300" cy="80"  r="54" fill="none" stroke="#2d5a3f" stroke-width="2"/><text x="300" y="95"  text-anchor="middle" font-family="Fraunces, Georgia, serif" font-size="44" font-weight="600" fill="#2d5a3f">R</text></g>
    <g><circle cx="520" cy="300" r="54" fill="none" stroke="#2d5a3f" stroke-width="2"/><text x="520" y="315" text-anchor="middle" font-family="Fraunces, Georgia, serif" font-size="44" font-weight="600" fill="#2d5a3f">Ä</text></g>
    <g><circle cx="300" cy="520" r="54" fill="none" stroke="#c66b3d" stroke-width="2"/><text x="300" y="535" text-anchor="middle" font-family="Fraunces, Georgia, serif" font-size="44" font-weight="600" fill="#c66b3d">T</text></g>
    <g><circle cx="80"  cy="300" r="54" fill="none" stroke="#2d5a3f" stroke-width="2"/><text x="80"  y="315" text-anchor="middle" font-family="Fraunces, Georgia, serif" font-size="44" font-weight="600" fill="#2d5a3f">T</text></g>
    <text x="300" y="285" text-anchor="middle" font-family="Fraunces, Georgia, serif" font-size="18" fill="#6b6b65">Professionellt</text>
    <text x="300" y="310" text-anchor="middle" font-family="Fraunces, Georgia, serif" font-size="18" fill="#6b6b65">omdöme</text>
  </g>
  <text x="350" y="690" text-anchor="middle" font-family="'Work Sans', -apple-system, sans-serif" font-size="11" font-weight="400" fill="#a5a59f">© Johan Lindström · JL Skolutveckling AB · jlsu.se</text>
</svg>
